{"title":"Lovesick.2014.BDRip.x264.AC3.RoSubbed-playSD","uid":12336559,"size":620075565,"categoryP":"video","categoryS":"movies","magnet":"?xt=urn:btih:97912b32279da02ea8b267995277b69f2c84b468&amp;dn=Lovesick.2014.BDRip.x264.AC3.RoSubbed-playSD&amp;tr=udp%3A%2F%2Ftracker.openbittorrent.com%3A80&amp;tr=udp%3A%2F%2Fopen.demonii.com%3A1337&amp;tr=udp%3A%2F%2Ftracker.coppersurfer.tk%3A6969&amp;tr=udp%3A%2F%2Fexodus.desync.com%3A6969","seeders":0,"leechers":0,"uploader":"TvTeam","files":5,"time":1441240988,"description":"------------------------------------------------------------------------\n\n &lt;a href=&quot; https://www.torrenting.com&quot; rel=&quot;nofollow&quot; target=&quot;_NEW&quot;&gt; https://www.torrenting.com&lt;/a&gt;\n\nSign up is OPEN - for time being. Come and have fun.\n\n------------------------------------------------------------------------General\nUnique ID                                : 238934150074445711695528954575869568928 (0xB3C10B1EA7B10BFCAA8B94F488E1E7A0)\nComplete name                            : F:FilelistEncodeLovesick.2014.BDRip.x264.AC3.RoSubbed-playSDLovesick.2014.BDRip.x264.AC3.RoSubbed-playSD.mkv\nFormat                                   : Matroska\nFormat version                           : Version 2\nFile size                                : 584 MiB\nDuration                                 : 1h 24mn\nOverall bit rate                         : 963 Kbps\nEncoded date                             : UTC \nWriting application                      : HandBrake 0.10.2 2015060900\nWriting library                          : Lavf55.12.0\n\nVideo\nID                                       : 1\nFormat                                   : AVC\nFormat/Info                              : Advanced Video Codec\nFormat profile                           : High@L4\nFormat settings, CABAC                   : No\nFormat settings, ReFrames                : 4 frames\nCodec ID                                 : V_MPEG4/ISO/AVC\nDuration                                 : 1h 24mn\nBit rate                                 : 560 Kbps\nWidth                                    : 720 pixels\nHeight                                   : 300 pixels\nDisplay aspect ratio                     : 2.40:1\nFrame rate mode                          : Constant\nFrame rate                               : 23.976 fps\nColor space                              : YUV\nChroma subsampling                       : 4:2:0\nBit depth                                : 8 bits\nScan type                                : Progressive\nBits/(Pixel*Frame)                       : 0.108\nStream size                              : 340 MiB (58%)\nWriting library                          : x264 core 142 r2479 dd79a61\nEncoding settings                        : cabac=0 / ref=1 / deblock=0:-1:-1 / analyse=0x3:0x113 / me=hex / subme=2 / psy=1 / psy_rd=1.00:0.15 / mixed_ref=0 / me_range=16 / chroma_me=1 / trellis=0 / 8x8dct=1 / cqm=0 / deadzone=21,11 / fast_pskip=1 / chroma_qp_offset=0 / threads=6 / lookahead_threads=2 / sliced_threads=0 / nr=0 / decimate=1 / interlaced=0 / bluray_compat=0 / constrained_intra=0 / bframes=3 / b_pyramid=2 / b_adapt=1 / b_bias=0 / direct=1 / weightb=0 / open_gop=0 / weightp=0 / keyint=240 / keyint_min=24 / scenecut=40 / intra_refresh=0 / rc_lookahead=10 / rc=crf / mbtree=1 / crf=19.0 / qcomp=0.60 / qpmin=0 / qpmax=69 / qpstep=4 / vbv_maxrate=25000 / vbv_bufsize=31250 / crf_max=0.0 / nal_hrd=none / filler=0 / ip_ratio=1.40 / aq=1:1.00\nDefault                                  : Yes\nForced                                   : No\nColor range                              : Limited\nColor primaries                          : BT.709\nTransfer characteristics                 : BT.709\nMatrix coefficients                      : BT.709\n\nAudio\nID                                       : 2\nFormat                                   : AC-3\nFormat/Info                              : Audio Coding 3\nMode extension                           : CM (complete main)\nFormat settings, Endianness              : Big\nCodec ID                                 : A_AC3\nDuration                                 : 1h 24mn\nBit rate mode                            : Constant\nBit rate                                 : 384 Kbps\nChannel(s)                               : 6 channels\nChannel positions                        : Front: L C R, Side: L R, LFE\nSampling rate                            : 48.0 KHz\nCompression mode                         : Lossy\nDelay relative to video                  : 27ms\nStream size                              : 233 MiB (40%)\nTitle                                    : Surround\nDefault                                  : Yes\nForced                                   : No","torrent":{"xt":"urn:btih:97912b32279da02ea8b267995277b69f2c84b468","amp;dn":"Lovesick.2014.BDRip.x264.AC3.RoSubbed-playSD","amp;tr":["udp%3A%2F%2Ftracker.openbittorrent.com%3A80","udp%3A%2F%2Fopen.demonii.com%3A1337","udp%3A%2F%2Ftracker.coppersurfer.tk%3A6969","udp%3A%2F%2Fexodus.desync.com%3A6969"],"infoHash":"97912b32279da02ea8b267995277b69f2c84b468","infoHashBuffer":{"type":"Buffer","data":[151,145,43,50,39,157,160,46,168,178,103,153,82,119,182,159,44,132,180,104]},"announce":[],"urlList":[]}}